<svg xmlns="http://www.w3.org/2000/svg" xmlns:xlink="http://www.w3.org/1999/xlink" width="100" height="100" viewBox="0 0 100 100"><defs><style>.a{fill:url(#a);}.b{fill:none;}.c{fill:#fff;}</style><linearGradient id="a" x2="1" y2="0.329" gradientUnits="objectBoundingBox"><stop offset="0" stop-color="#b65418"/><stop offset="1" stop-color="#f66269"/></linearGradient></defs><circle class="a" cx="50" cy="50" r="50"/><g transform="translate(21 21)"><rect class="b" width="58" height="58" transform="translate(0 0)"/><g transform="translate(2.636 6.591)"><path class="c" d="M31.87,13.976a9.6,9.6,0,0,1,4.466,7.129,7.742,7.742,0,1,0-4.466-7.129ZM26.8,29.835a7.745,7.745,0,1,0-7.747-7.745A7.746,7.746,0,0,0,26.8,29.835Zm3.286.528H23.509a9.929,9.929,0,0,0-9.917,9.918v8.038l.02.126.554.173A45.143,45.143,0,0,0,27.65,50.792c7.289,0,11.514-2.078,11.774-2.211l.517-.262H40V40.281A9.926,9.926,0,0,0,30.082,30.363Zm12.815-8H36.375a9.546,9.546,0,0,1-2.946,6.649,11.784,11.784,0,0,1,8.417,11.277V42.77A26.688,26.688,0,0,0,52.24,40.586l.517-.262h.055v-8.04A9.928,9.928,0,0,0,42.9,22.367ZM13.2,21.84a7.694,7.694,0,0,0,4.119-1.2,9.586,9.586,0,0,1,3.6-6.114c.008-.145.022-.289.022-.435A7.745,7.745,0,1,0,13.2,21.84Zm6.956,7.176A9.551,9.551,0,0,1,17.217,22.4c-.242-.018-.481-.037-.728-.037H9.917A9.928,9.928,0,0,0,0,32.284v8.039l.02.124.554.175a46.5,46.5,0,0,0,11.168,2.1V40.293A11.787,11.787,0,0,1,20.161,29.016Z" transform="translate(0 -6.348)"/></g></g></svg>