<svg xmlns="http://www.w3.org/2000/svg" width="32" height="32" viewBox="0 0 32 32"><defs><style>.a{fill:none;}.b{fill:#fff;}</style></defs><g transform="translate(0 0.475)"><rect class="a" width="32" height="32" transform="translate(0 -0.475)"/><g transform="translate(3.999 4.525)"><path class="b" d="M23.853,11.451l-3.871-3.1a.387.387,0,0,0-.242-.085H4.257a.388.388,0,0,0-.242.085l-3.871,3.1a.384.384,0,0,0,.208.684l7.109,7.109a6.967,6.967,0,1,0,9.075,0l7.109-7.109a.384.384,0,0,0,.208-.684ZM13.639,17.759l5.618-5.618h3.288l-6.63,6.629a6.9,6.9,0,0,0-2.276-1.011ZM8.082,18.77l-6.63-6.629H4.739l5.619,5.618A6.9,6.9,0,0,0,8.082,18.77ZM11.3,17.6l-5.461-5.46H18.162L12.7,17.6a6.638,6.638,0,0,0-1.406,0Zm-6.9-8.557H19.6l2.9,2.322H1.49Zm13.8,15.483a6.193,6.193,0,1,1-9.919-4.943,6.1,6.1,0,0,1,2.932-1.2,5.823,5.823,0,0,1,1.594,0A6.193,6.193,0,0,1,18.192,24.527Z" transform="translate(0.001 -8.27)"/><path class="b" d="M149.088,240.552a5.365,5.365,0,0,0-2.572-1.045,5.044,5.044,0,0,0-1.394,0,5.419,5.419,0,1,0,3.966,1.043Zm-3.259,8.971a4.641,4.641,0,0,1-2.793-8.352,4.547,4.547,0,0,1,2.188-.894,4.438,4.438,0,0,1,.606-.043,4.311,4.311,0,0,1,.586.038,4.644,4.644,0,0,1-.586,9.251Z" transform="translate(-133.829 -228.622)"/><path class="b" d="M187.51,284.3a.257.257,0,0,1-.151-.047l-1.831-1.333-1.831,1.33a.258.258,0,0,1-.4-.288l.7-2.152-1.831-1.33a.258.258,0,0,1,.151-.466h2.263l.7-2.152a.258.258,0,0,1,.491,0l.7,2.152h2.263a.258.258,0,0,1,.151.466l-1.831,1.33.7,2.152a.258.258,0,0,1-.245.337Zm-1.982-1.956a.258.258,0,0,1,.151.049l1.341.974-.512-1.576a.258.258,0,0,1,.094-.288l1.341-.974h-1.657a.258.258,0,0,1-.245-.178l-.512-1.575-.512,1.576a.258.258,0,0,1-.245.178h-1.657l1.341.974a.258.258,0,0,1,.094.288l-.512,1.576,1.341-.974A.259.259,0,0,1,185.528,282.34Z" transform="translate(-173.528 -265.051)"/></g></g></svg>