<svg xmlns="http://www.w3.org/2000/svg" width="32" height="32" viewBox="0 0 32 32"><defs><style>.a{fill:none;}.b{fill:#fff;}</style></defs><g transform="translate(0 0.475)"><rect class="a" width="32" height="32" transform="translate(0 -0.475)"/><g transform="translate(8 3.526)"><g transform="translate(0)"><path class="b" d="M86.8,0h-8a2,2,0,0,0-2,2V16.4a2,2,0,0,0,2,2H86v-.8H78.8a1.2,1.2,0,0,1-1.2-1.2V2A1.2,1.2,0,0,1,78.8.8h8A1.2,1.2,0,0,1,88,2V13.6h.8V2A2,2,0,0,0,86.8,0Z" transform="translate(-76.8)"/></g><g transform="translate(5.6 5.75)"><path class="b" d="M206.5,127.579l-3.924-4.9-.625.5,3.924,4.9a3.61,3.61,0,0,1,.789,2.25v9.8h-5.852a3.752,3.752,0,0,1-3.748-3.748v-1.452h-.8v1.452a4.553,4.553,0,0,0,4.548,4.548h6.252a.4.4,0,0,0,.4-.4v-10.2A4.417,4.417,0,0,0,206.5,127.579Z" transform="translate(-196.267 -122.675)"/></g><g transform="translate(4.916 8.633)"><path class="b" d="M183.556,184.961a1.044,1.044,0,0,1,.734.329L189.666,191l.583-.548-5.376-5.712a1.84,1.84,0,0,0-1.294-.58,1.817,1.817,0,0,0-1.32.5l-.04.039a1.847,1.847,0,0,0-.106,2.5l3.445,4.068v1.238a5.352,5.352,0,0,0,3.46,4.991l.281-.749a4.549,4.549,0,0,1-2.94-4.242v-1.384a.4.4,0,0,0-.095-.259l-3.539-4.179a1.056,1.056,0,0,1,.08-1.442A1.07,1.07,0,0,1,183.556,184.961Z" transform="translate(-181.674 -184.16)"/></g><g transform="translate(8.8 0.8)"><rect class="b" width="0.8" height="10"/></g><g transform="translate(6.8 13.2)"><rect class="b" width="0.8" height="4.8"/></g><g transform="translate(6.8 0.4)"><rect class="b" width="0.8" height="8.8"/></g><g transform="translate(2 2)"><rect class="b" width="0.8" height="5.2"/></g><g transform="translate(4 2)"><rect class="b" width="0.8" height="3.2"/></g><g transform="translate(2 13.2)"><path class="b" d="M122.267,281.6h-2.4a.4.4,0,0,0-.4.4v2.4a.4.4,0,0,0,.4.4h2.4a.4.4,0,0,0,.4-.4V282A.4.4,0,0,0,122.267,281.6Zm-.4,2.4h-1.6v-1.6h1.6Z" transform="translate(-119.467 -281.6)"/></g></g></g></svg>