<svg xmlns="http://www.w3.org/2000/svg" width="32" height="32" viewBox="0 0 32 32"><defs><style>.a{fill:none;}.b{fill:#fff;}</style></defs><g transform="translate(0 0.475)"><rect class="a" width="32" height="32" transform="translate(0 -0.475)"/><g transform="translate(6.001 3.526)"><g transform="translate(0)"><path class="b" d="M57.8,4.144A39.858,39.858,0,0,1,48.191.07a.5.5,0,0,0-.511,0A38.828,38.828,0,0,1,38.07,4.144a.5.5,0,0,0-.37.487V9.788A14.854,14.854,0,0,0,42.2,20.63C44.417,22.8,47,24,47.933,24s3.516-1.2,5.728-3.37a14.836,14.836,0,0,0,4.5-10.842V4.631A.5.5,0,0,0,57.8,4.144Zm-.638,5.644a13.855,13.855,0,0,1-4.2,10.12,11.123,11.123,0,0,1-5.02,3.08,11.123,11.123,0,0,1-5.02-3.08,13.837,13.837,0,0,1-4.2-10.12V5.016a39.821,39.821,0,0,0,9.225-3.923,41.161,41.161,0,0,0,9.225,3.923Z" transform="translate(-37.7)"/><path class="b" d="M125.532,158.227a1.642,1.642,0,0,0-2.325,2.32l2.981,2.981a1.641,1.641,0,0,0,2.325,0l6.225-6.225a1.642,1.642,0,1,0-2.325-2.32l-5.062,5.062Zm7.594-2.527a.631.631,0,0,1,.891.9l-6.216,6.22a.634.634,0,0,1-.891,0l-2.981-2.981a.631.631,0,0,1,.891-.9l2.175,2.175a.512.512,0,0,0,.356.15.493.493,0,0,0,.356-.15Z" transform="translate(-118.739 -147.258)"/></g></g></g></svg>