<svg xmlns="http://www.w3.org/2000/svg" width="115" height="36" viewBox="0 0 115 36"><defs><style>.a{fill:#f5c042;}.b{fill:#151716;}</style></defs><g transform="translate(-360 -4.037)"><g transform="translate(-105 4)"><rect class="a" width="115" height="36" rx="4" transform="translate(465 0.037)"/><path class="b" d="M8.877-13.516l-.2,1.7a6.229,6.229,0,0,0-1.323-.469,6.316,6.316,0,0,0-1.421-.156,3.54,3.54,0,0,0-1.968.469,1.468,1.468,0,0,0-.708,1.289A1.7,1.7,0,0,0,3.74-9.512,8.808,8.808,0,0,0,5.8-8.115,10.324,10.324,0,0,1,8.643-6.055a3.2,3.2,0,0,1,.781,2.119,3.681,3.681,0,0,1-1.294,2.9A4.864,4.864,0,0,1,4.8.1,10.989,10.989,0,0,1,2.92-.059,8.822,8.822,0,0,1,1.24-.518l.2-1.865a8.174,8.174,0,0,0,1.66.664A6.017,6.017,0,0,0,4.658-1.5a3.232,3.232,0,0,0,1.963-.547A1.711,1.711,0,0,0,7.363-3.5q0-1.4-2.92-3.057-.488-.273-.742-.43A5.269,5.269,0,0,1,1.953-8.555a3.334,3.334,0,0,1-.635-1.9,3.078,3.078,0,0,1,1.235-2.573,5.38,5.38,0,0,1,3.364-.952,9.819,9.819,0,0,1,1.533.117A8.452,8.452,0,0,1,8.877-13.516ZM20.3-5.342v.762H13.193a3.685,3.685,0,0,0,1.03,2.5,3.435,3.435,0,0,0,2.5.894A5.368,5.368,0,0,0,18.1-1.362,6.7,6.7,0,0,0,19.5-1.924v1.6A6.725,6.725,0,0,1,18.052.1a9.806,9.806,0,0,1-1.733.142,4.642,4.642,0,0,1-3.6-1.44A5.585,5.585,0,0,1,11.4-5.117,5.347,5.347,0,0,1,12.69-8.862a4.362,4.362,0,0,1,3.384-1.421,3.865,3.865,0,0,1,3.1,1.318A5.394,5.394,0,0,1,20.3-5.342ZM18.555-5.82a3.922,3.922,0,0,0-.771-2.31,2.235,2.235,0,0,0-1.807-.806,2.361,2.361,0,0,0-1.855.835,3.973,3.973,0,0,0-.879,2.28Zm3.789-9.121h1.875V0H22.344Zm5,0h1.875V0H27.344Zm13.242,9.6v.762H33.477a3.685,3.685,0,0,0,1.03,2.5,3.435,3.435,0,0,0,2.5.894,5.368,5.368,0,0,0,1.377-.181,6.7,6.7,0,0,0,1.406-.562v1.6A6.725,6.725,0,0,1,38.335.1,9.806,9.806,0,0,1,36.6.244,4.642,4.642,0,0,1,33-1.2,5.585,5.585,0,0,1,31.68-5.117a5.347,5.347,0,0,1,1.294-3.745,4.362,4.362,0,0,1,3.384-1.421,3.865,3.865,0,0,1,3.1,1.318A5.394,5.394,0,0,1,40.586-5.342ZM38.838-5.82a3.922,3.922,0,0,0-.771-2.31,2.235,2.235,0,0,0-1.807-.806A2.361,2.361,0,0,0,34.4-8.1a3.973,3.973,0,0,0-.879,2.28Zm9.248-4.336-.059,1.777a2.578,2.578,0,0,0-.41-.093,2.842,2.842,0,0,0-.371-.024,2.345,2.345,0,0,0-1.973.9,4.113,4.113,0,0,0-.693,2.559V0H42.725V-10.039H44.4v2.061a3.734,3.734,0,0,1,1.167-1.67,2.759,2.759,0,0,1,1.733-.576q.156,0,.356.02T48.086-10.156Zm7.432.381-.078,1.514a6.2,6.2,0,0,0-1.245-.43A5.778,5.778,0,0,0,52.9-8.838a2.134,2.134,0,0,0-1.221.313.96.96,0,0,0-.459.83,1.111,1.111,0,0,0,.376.82,6.476,6.476,0,0,0,1.567.918,6.565,6.565,0,0,1,2.178,1.426,2.476,2.476,0,0,1,.6,1.67,2.557,2.557,0,0,1-1.1,2.173,4.927,4.927,0,0,1-2.974.806A7.238,7.238,0,0,1,50.513-.01a7.277,7.277,0,0,1-1.294-.371l.059-1.562a6.712,6.712,0,0,0,1.362.513,5.337,5.337,0,0,0,1.3.171,2.426,2.426,0,0,0,1.46-.4,1.256,1.256,0,0,0,.542-1.069,1.248,1.248,0,0,0-.322-.859,5.479,5.479,0,0,0-1.5-.937,7.189,7.189,0,0,1-2.168-1.436,2.286,2.286,0,0,1-.586-1.562,2.257,2.257,0,0,1,1-1.909,4.406,4.406,0,0,1,2.656-.728,8.472,8.472,0,0,1,1.235.093A8.517,8.517,0,0,1,55.518-9.775Zm2.881-4.1h1.943V-8h6.3v-5.879h1.943V0H66.641V-6.416h-6.3V0H58.4Zm13.34,3.838H73.6v5.557A3.862,3.862,0,0,0,74.146-2.2a1.946,1.946,0,0,0,1.675.732,2.27,2.27,0,0,0,2-1.006,5.181,5.181,0,0,0,.688-2.93v-4.639h1.855V0h-1.7V-1.943A3.86,3.86,0,0,1,77.246-.376a3.95,3.95,0,0,1-2.061.513A3.136,3.136,0,0,1,72.612-.928a4.844,4.844,0,0,1-.874-3.135Zm16.68,1.2a2.518,2.518,0,0,0-2.1,1.006,4.4,4.4,0,0,0-.776,2.754,4.38,4.38,0,0,0,.776,2.72,2.448,2.448,0,0,0,2.046,1.021,2.306,2.306,0,0,0,1.958-.991,4.456,4.456,0,0,0,.728-2.69,4.825,4.825,0,0,0-.713-2.788A2.217,2.217,0,0,0,88.418-8.838Zm-4.736-6.1h1.855v6.5A3.706,3.706,0,0,1,86.924-9.81a4.008,4.008,0,0,1,1.953-.454,3.664,3.664,0,0,1,2.988,1.392A5.676,5.676,0,0,1,93-5.176a6.091,6.091,0,0,1-1.152,3.853A3.6,3.6,0,0,1,88.877.156,3.746,3.746,0,0,1,86.846-.4a4.205,4.205,0,0,1-1.465-1.641V0h-1.7Z" transform="translate(476 25.037)"/></g></g></svg>