<svg xmlns="http://www.w3.org/2000/svg" width="32" height="32" viewBox="0 0 32 32"><defs><style>.a{fill:none;}.b{fill:#fff;}</style></defs><rect class="a" width="32" height="32"/><path class="b" d="M45.407,15.406V8.625a1.871,1.871,0,0,0,.427-.18A1.9,1.9,0,1,0,43.5,5.5L37.874,2.249a1.9,1.9,0,1,0-3.754-.031L28.434,5.5a1.9,1.9,0,1,0-1.9,3.128V15.4A1.9,1.9,0,1,0,28.4,18.572l5.746,3.317a1.872,1.872,0,0,0-.016.242,1.9,1.9,0,1,0,3.777-.3l5.633-3.252a1.9,1.9,0,1,0,1.869-3.169Zm-9,1.44-.009-2.877a1.916,1.916,0,0,0,1.044-.591l5.629,3.3c-.007.021-.013.042-.019.063s-.018.073-.026.109Zm-7.495,0a1.945,1.945,0,0,0-.061-.224l5.684-3.349a1.922,1.922,0,0,0,1.092.687l.009,2.887ZM28,8.446A1.909,1.909,0,0,0,28.43,8.1l2.531,1.482L27.546,15.4h-.007a1.844,1.844,0,0,0-.234-.047V8.682A1.892,1.892,0,0,0,28,8.446Zm3.631,1.53,2.6,1.523a1.9,1.9,0,0,0-.039,1.081l-5.733,3.377a1.886,1.886,0,0,0-.22-.208Zm5.037-6.262,3.187,5.531-2.515,1.482a1.907,1.907,0,0,0-.954-.488L36.363,3.8a1.913,1.913,0,0,0,.3-.085Zm-.634,9.52h-.019A1.129,1.129,0,1,1,36,10.975h.024a1.129,1.129,0,0,1,0,2.259ZM35.59,3.79l.02,6.459a1.878,1.878,0,0,0-1,.584l-2.6-1.52L35.311,3.7A1.945,1.945,0,0,0,35.59,3.79ZM43.436,16l-5.607-3.284a1.9,1.9,0,0,0-.051-1.355l2.459-1.448L43.632,15.8A1.811,1.811,0,0,0,43.436,16Zm.867-.577-3.4-5.9,2.534-1.493a1.9,1.9,0,0,0,1.2.656v6.665A1.887,1.887,0,0,0,44.3,15.421Zm.016-9.6a1.13,1.13,0,1,1-.528.686,1.13,1.13,0,0,1,.528-.686ZM43.1,6.154c-.018.05-.034.1-.047.151a1.893,1.893,0,0,0,.017,1.045l-2.549,1.5L37.317,3.3a1.9,1.9,0,0,0,.272-.328ZM36,.8a1.13,1.13,0,1,1-1.13,1.13A1.13,1.13,0,0,1,36,.8ZM34.664,3.285,31.352,8.921,28.833,7.447a1.367,1.367,0,0,0,.047-.155,1.884,1.884,0,0,0-.047-1.133L34.394,2.95A1.935,1.935,0,0,0,34.664,3.285Zm-8.6,4.08a1.13,1.13,0,1,1,1.543.414A1.13,1.13,0,0,1,26.068,7.364Zm1.543,10.847a1.13,1.13,0,1,1,.526-.686A1.13,1.13,0,0,1,27.611,18.211Zm1.206-.289a1.868,1.868,0,0,0,.065-.2c.01-.036.018-.072.026-.109h6.726l.008,2.65a1.907,1.907,0,0,0-1.24.878Zm7.211,5.337a1.13,1.13,0,1,1,1.13-1.13A1.13,1.13,0,0,1,36.029,23.259Zm.384-2.992-.008-2.65h6.617a1.909,1.909,0,0,0,.094.308L37.624,21.1A1.9,1.9,0,0,0,36.413,20.267Zm9.035-2.058a1.13,1.13,0,1,1,.414-1.543,1.13,1.13,0,0,1-.414,1.543Z" transform="translate(-20.144 3.964)"/></svg>