<svg xmlns="http://www.w3.org/2000/svg" width="32" height="32" viewBox="0 0 32 32"><defs><style>.a{fill:none;}.b{fill:#fff;}</style></defs><g transform="translate(0 0.475)"><rect class="a" width="32" height="32" transform="translate(0 -0.475)"/><g transform="translate(3.999 4.526)"><path class="b" d="M61.746,48.2h-19.7A2.154,2.154,0,0,0,39.9,50.349v18.77a2.155,2.155,0,0,0,2.154,2.149h19.7A2.154,2.154,0,0,0,63.9,69.119V50.349A2.166,2.166,0,0,0,61.746,48.2ZM62.79,69.124a1.043,1.043,0,0,1-1.044,1.044h-19.7A1.043,1.043,0,0,1,41,69.124V50.349A1.043,1.043,0,0,1,42.049,49.3H61.74a1.043,1.043,0,0,1,1.044,1.044V69.124Z" transform="translate(-39.9 -48.2)"/><path class="b" d="M103.4,232.443h-1.144v-2.576h-1.1v2.576h-1.149v-3H98.9v3H97.758v-4.291h-1.11v4.291H95.5v-6.867h-1.11v6.867H93.25v-1.715H92.14v1.715H90.386v-3h-1.11v3H88.132v-4.291h-1.11v4.291H85.633l-.033,1.1h18.915V223H103.4Z" transform="translate(-83.063 -213.296)"/><path class="b" d="M97.5,129.169a1.359,1.359,0,0,0,.716.205h.094a1.185,1.185,0,0,0,.316-.061l-.006-.006a1.378,1.378,0,0,0,.555-.339,1.357,1.357,0,0,0,.4-.96,1.277,1.277,0,0,0-.039-.322l3.808-2.948a1.347,1.347,0,0,0,.994.117l.749.922a1.365,1.365,0,0,0,.644,1.749,1.356,1.356,0,0,0,1.821-.611,1.366,1.366,0,0,0,.144-.605c0-.061-.006-.122-.011-.183l4.747-3.076a1.387,1.387,0,0,0,.938.205,1.357,1.357,0,0,0,.616-2.432,1.363,1.363,0,0,0-1.01-.255,1.346,1.346,0,0,0-.894.533,1.376,1.376,0,0,0-.266.811,1.351,1.351,0,0,0,.017.211l-4.73,3.065a1.35,1.35,0,0,0-1.2-.161l-.705-.866a1.372,1.372,0,0,0,.144-.611,1.358,1.358,0,0,0-1.36-1.355h0a1.354,1.354,0,0,0-1.355,1.36,1.235,1.235,0,0,0,.039.316l-3.808,2.948a1.358,1.358,0,0,0-1.36,2.348Zm15.672-7.506a.25.25,0,1,1-.25.25A.249.249,0,0,1,113.17,121.663Zm-6.829,4.4a.25.25,0,1,1-.25.25A.249.249,0,0,1,106.341,126.06Zm-2.354-2.765h0a.254.254,0,0,1,.255.25.25.25,0,0,1-.5,0A.241.241,0,0,1,103.987,123.3Zm-5.774,4.469h0a.267.267,0,0,1,.178.072.243.243,0,0,1,.072.178.249.249,0,0,1-.25.25h0a.25.25,0,1,1,0-.5Z" transform="translate(-93.694 -116.539)"/></g></g></svg>