<svg xmlns="http://www.w3.org/2000/svg" width="24" height="24" viewBox="0 0 24 24"><defs><style>.a{fill:none;}.b{fill:#151716;}</style></defs><path class="a" d="M0,0H24V24H0Z"/><path class="b" d="M13.37,2.094A10,10,0,0,0,8,21.17a7.757,7.757,0,0,1,.163-2.293c.185-.839,1.3-5.463,1.3-5.463a3.739,3.739,0,0,1-.324-1.577c0-1.485.857-2.593,1.923-2.593A1.334,1.334,0,0,1,12.4,10.752a21.828,21.828,0,0,1-.88,3.54A1.544,1.544,0,0,0,13.1,16.215c1.9,0,3.17-2.431,3.17-5.3,0-2.2-1.457-3.848-4.143-3.848a4.746,4.746,0,0,0-4.93,4.794,2.96,2.96,0,0,0,.648,1.97A.48.48,0,0,1,8,14.384c-.046.184-.162.623-.208.784a.354.354,0,0,1-.51.254C5.9,14.868,5.25,13.345,5.25,11.606c0-2.847,2.384-6.255,7.154-6.255a5.992,5.992,0,0,1,6.32,5.747c0,3.909-2.177,6.848-5.394,6.848A2.861,2.861,0,0,1,10.876,16.7s-.578,2.316-.692,2.754a8.026,8.026,0,0,1-1.019,2.131A9.664,9.664,0,0,0,12.011,22,10,10,0,0,0,13.372,2.1Z"/></svg>