<svg xmlns="http://www.w3.org/2000/svg" xmlns:xlink="http://www.w3.org/1999/xlink" width="100" height="100" viewBox="0 0 100 100"><defs><style>.a{fill:url(#a);}.b{fill:#eee;}.c{fill:#bebebe;}.d{fill:#fff;}.e{fill:#598144;}</style><linearGradient id="a" x2="0.546" y2="1" gradientUnits="objectBoundingBox"><stop offset="0" stop-color="#94be65"/><stop offset="1" stop-color="#3f6536"/></linearGradient></defs><path class="a" d="M100,50A50,50,0,1,1,50,0,50,50,0,0,1,100,50Z"/><g transform="translate(17.996 24)"><path class="b" d="M274.353,20.6V36.329a.6.6,0,0,1-.6.6H255.6a.6.6,0,0,1-.6-.6V20.6a.6.6,0,0,1,.6-.6h18.144A.6.6,0,0,1,274.353,20.6Z" transform="translate(-226.272 -20)"/><path class="c" d="M225.239,163.608,195,168.144V150h30.239Z" transform="translate(-173.53 -134.276)"/><path class="d" d="M80.883,42.338H38.04l-.98-3.922a1.209,1.209,0,0,0-1.278-.91c-.037,0-.075-.006-.113-.006H26.185a1.21,1.21,0,0,0,0,2.419h8.757l.972,3.887,4.759,25.1-2.3,6.915a1.21,1.21,0,1,0,2.3.765l2.137-6.41,38.236-4.869a1.21,1.21,0,0,0,1.057-1.2V56.868h0V43.548A1.21,1.21,0,0,0,80.883,42.338ZM38.556,44.757H48.1l.608,5.777L39.7,50.8Zm1.6,8.449,8.807-.259.581,5.523-8.249.745Zm2.753,14.52L41.75,61.6l8.05-.727.608,5.78c0,.038.01.076.017.113Zm7.625-22.969h9.544c0,.024,0,.047,0,.071l.315,5.362-9.26.272Zm.855,8.118,9.148-.269.285,4.845-8.867.8Zm1.427,13.589c0-.021,0-.041,0-.062l-.6-5.745,8.756-.791.325,5.519ZM62.5,44.757h8.465V49.88l-8.15.24Zm.458,7.778,8.007-.236v4.235l-7.731.7Zm.738,12.544-.319-5.43,7.589-.686v5.147c0,.015,0,.029,0,.043Zm15.979-2.035-6.29.8v-5.1l6.29-.568Zm0-7.3-6.29.568V52.229l6.29-.185Zm0-6.124-6.29.185V44.757h6.29Z" transform="translate(-24.092 -35.384)"/><path class="d" d="M69.21,68.1v2.419a.6.6,0,0,1-.6.6H32.317a.6.6,0,0,1-.6-.6V68.1a.6.6,0,0,1,.6-.6H68.6A.6.6,0,0,1,69.21,68.1ZM24.909,30H19.768A2.268,2.268,0,0,0,17.5,32.268h0a2.268,2.268,0,0,0,2.268,2.268h5.141a2.268,2.268,0,0,0,2.268-2.268h0A2.268,2.268,0,0,0,24.909,30Z" transform="translate(-17.5 -28.791)"/><path class="d" d="M211.611,338.1v8.467a.6.6,0,0,1-.6.6h-2.419a.6.6,0,0,1-.6-.6V338.1a.6.6,0,0,1,.6-.6h2.419A.6.6,0,0,1,211.611,338.1Zm-23.587-.6H185.6a.6.6,0,0,0-.6.6v8.467a.6.6,0,0,0,.6.6h2.419a.6.6,0,0,0,.6-.6V338.1A.6.6,0,0,0,188.024,337.5Z" transform="translate(-164.74 -299.096)"/><path class="d" d="M196.449,391.733a4.234,4.234,0,1,1-4.234-4.234A4.234,4.234,0,0,1,196.449,391.733ZM169.234,387.5a4.234,4.234,0,1,0,4.234,4.234A4.234,4.234,0,0,0,169.234,387.5Z" transform="translate(-147.159 -343.048)"/><path class="e" d="M207.82,404.919A2.419,2.419,0,1,1,205.4,402.5,2.419,2.419,0,0,1,207.82,404.919Zm-25.4-2.419a2.419,2.419,0,1,0,2.419,2.419A2.419,2.419,0,0,0,182.419,402.5Z" transform="translate(-160.345 -356.234)"/></g></svg>