<svg xmlns="http://www.w3.org/2000/svg" width="32" height="32" viewBox="0 0 32 32"><defs><style>.a{fill:none;}.b{fill:#fff;}</style></defs><g transform="translate(0 0.475)"><rect class="a" width="32" height="32" transform="translate(0 -0.475)"/><g transform="translate(4 3.526)"><g transform="translate(14.299 2.346)"><path class="b" d="M287.488,48.718c-.524-.161-.617-.235-.617-.5a.5.5,0,0,1,1,0h.8a1.3,1.3,0,0,0-2.6,0c0,.9.712,1.121,1.183,1.265.525.161.618.236.618.5a.5.5,0,0,1-1,0h-.8a1.3,1.3,0,0,0,2.6,0C288.672,49.08,287.96,48.862,287.488,48.718Z" transform="translate(-286.072 -46.934)"/></g><g transform="translate(11.2 11.598)"><path class="b" d="M236.477,232.006h-12a.4.4,0,0,0-.4.4V244a.4.4,0,0,0,.4.4h12a.4.4,0,0,0,.4-.4v-11.6A.4.4,0,0,0,236.477,232.006Zm-3.6.8h1.2v1.4a.6.6,0,1,1-1.2,0Zm-2,0h1.2v1.4a.6.6,0,1,1-1.2,0Zm-2,0h1.2v1.4a.6.6,0,1,1-1.2,0Zm-2,0h1.2v1.4a.6.6,0,1,1-1.2,0Zm-2,0h1.2v1.4a.6.6,0,1,1-1.2,0Zm4,10.8h-2.4v-4h2.4Zm7.2,0h-6.4v-4.4a.4.4,0,0,0-.4-.4h-3.2a.4.4,0,0,0-.4.4v4.4h-.8v-8.139a1.378,1.378,0,0,0,1.6-.283,1.392,1.392,0,0,0,1.969.03l.03-.03a1.392,1.392,0,0,0,1.969.03l.031-.03a1.392,1.392,0,0,0,1.969.03l.031-.03a1.392,1.392,0,0,0,1.969.03l.031-.03a1.378,1.378,0,0,0,1.6.283V243.6Zm0-9.4a.6.6,0,1,1-1.2,0v-1.4h1.2Z" transform="translate(-224.08 -232.006)"/></g><g transform="translate(0.402 14.797)"><path class="b" d="M16.409,296.006a.4.4,0,0,0-.387.3l-.339,1.3H8.48a.4.4,0,0,0-.386.5l1.073,4a.4.4,0,0,0,.386.3h.727v.474a1.2,1.2,0,1,0,.8,0V302.4h2.4v.474a1.2,1.2,0,1,0,.8,0V302.4h.64a.4.4,0,0,0,.386-.3l1.413-5.3h1.36v-.8Zm-5.729,8.4a.4.4,0,1,1,.4-.4A.4.4,0,0,1,10.679,304.4Zm3.2,0a.4.4,0,1,1,.4-.4A.4.4,0,0,1,13.879,304.4Zm.733-2.8H9.86L9,298.405H15.47Z" transform="translate(-8.08 -296.006)"/></g><g transform="translate(0 0)"><path class="b" d="M22.548,8.515l-.917.917V4.4a.4.4,0,0,0-.4-.4H19.208a3.6,3.6,0,0,0-7.151,0H8.814a4.4,4.4,0,1,0,0,.8h3.243a3.6,3.6,0,0,0,7.151,0h1.623V9.432l-.917-.917-.565.566,1.6,1.6a.4.4,0,0,0,.565,0h0l1.6-1.6Zm-16.513-.9a3.558,3.558,0,0,1-3.2,0V6.856A1.259,1.259,0,0,1,4.093,5.6h.685A1.259,1.259,0,0,1,6.035,6.856v.762ZM3.235,3.6a1.2,1.2,0,1,1,1.2,1.2A1.2,1.2,0,0,1,3.235,3.6ZM7.118,6.791a3.6,3.6,0,0,1-.283.283V6.856A2.05,2.05,0,0,0,5.778,5.07a2,2,0,1,0-2.824-.138q.065.072.138.138A2.05,2.05,0,0,0,2.036,6.856v.218a3.6,3.6,0,1,1,5.082-.283Zm8.515.408a2.8,2.8,0,1,1,2.8-2.8A2.8,2.8,0,0,1,15.632,7.2Z" transform="translate(-0.034 0)"/></g><g transform="translate(2.519 9.598)"><path class="b" d="M52.589,192.123a.4.4,0,0,0-.565,0h0l-1.6,1.6.566.565.917-.917V198h.8v-4.633l.917.917.565-.566Z" transform="translate(-50.424 -192.006)"/></g><g transform="translate(17.598 15.997)"><path class="b" d="M356.479,320.006h-4a.4.4,0,0,0-.4.4v2.8a.4.4,0,0,0,.4.4h4a.4.4,0,0,0,.4-.4v-2.8A.4.4,0,0,0,356.479,320.006Zm-.4,2.8h-3.2v-2h3.2Z" transform="translate(-352.08 -320.006)"/></g></g></g></svg>