<svg xmlns="http://www.w3.org/2000/svg" xmlns:xlink="http://www.w3.org/1999/xlink" width="100" height="100" viewBox="0 0 100 100"><defs><style>.a{fill:url(#a);}.b{fill:#fff;}</style><linearGradient id="a" x2="0.232" y2="1" gradientUnits="objectBoundingBox"><stop offset="0" stop-color="#6b0a4a"/><stop offset="1" stop-color="#f1d373"/></linearGradient></defs><circle class="a" cx="50" cy="50" r="50"/><path class="b" d="M21.141,57.931C20.286,57.553,0,48.529,0,36.721V7.872a.845.845,0,0,1,.848-.843C17.744,7.029,20.673.583,20.7.515A.864.864,0,0,1,21.479,0h.013a.848.848,0,0,1,.779.533c.029.059,2.894,6.5,19.858,6.5a.848.848,0,0,1,.842.843v28.85c0,11.807-20.28,20.832-21.145,21.21a.8.8,0,0,1-.337.069A.833.833,0,0,1,21.141,57.931ZM20.868,6.706c-.021.05-2.314,5.093-15.544,5.093a.666.666,0,0,0-.665.665V35.045c0,9.239,15.89,16.308,16.554,16.6a.651.651,0,0,0,.27.059.631.631,0,0,0,.268-.059c.676-.291,16.555-7.361,16.555-16.6V12.464a.665.665,0,0,0-.665-.665C24.367,11.8,22.121,6.76,22.1,6.715a.66.66,0,0,0-.608-.419h-.013A.675.675,0,0,0,20.868,6.706ZM19.9,40.826,8.7,29.437a21.109,21.109,0,0,1,3.45-2.975l6.148,4.82A72.092,72.092,0,0,1,34.781,17.11a12.567,12.567,0,0,1,1.33,1.781A.445.445,0,0,1,36,19.4C28.393,26.4,22.436,36.061,20.631,40.675a.44.44,0,0,1-.322.278.589.589,0,0,1-.087,0A.418.418,0,0,1,19.9,40.826Z" transform="translate(29 20.999)"/></svg>