<svg xmlns="http://www.w3.org/2000/svg" width="32" height="32" viewBox="0 0 32 32"><defs><style>.a{fill:none;}.b{fill:#111;}</style></defs><rect class="a" width="32" height="32"/><g transform="translate(3.996 3)"><path class="b" d="M5,13.83A3,3,0,0,1,6,8h4.5c1.89,0,4.48-.971,7.743-2.929A.5.5,0,0,1,19,5.5V8.05a2.5,2.5,0,0,1,2,2.45v1a2.5,2.5,0,0,1-2,2.45V16.5a.5.5,0,0,1-.757.429C14.98,14.97,12.39,14,10.5,14H9.22a.813.813,0,0,0-.22.5c0-.068.026-.046.224.053.552.276.776.463.776.947a1.083,1.083,0,0,1-.36.823l-.024.027c-.1.11-.116.132-.116.216,0-.04.007-.038.183.031l.039.015c.532.209.778.394.778.888a1.926,1.926,0,0,1-.646,1.354c-1.526,1.525-2.885,1.751-3.77.423C5.378,18.219,5.029,16.411,5,13.83ZM6,14c.04,2.3.354,3.885.912,4.723.448.672,1.09.565,2.23-.577A1.013,1.013,0,0,0,9.5,17.53c-.011.063-.04.053-.142.013l-.04-.015c-.545-.214-.817-.431-.817-.957a1.187,1.187,0,0,1,.384-.9l.025-.027c.075-.08.088-.1.09-.125-.005.047-.042.021-.223-.069C8.224,15.171,8,14.984,8,14.5a1.53,1.53,0,0,1,.084-.5ZM19,9.085v3.83A1.5,1.5,0,0,0,20,11.5v-1A1.5,1.5,0,0,0,19,9.085Zm-8-.1v4.036a17.586,17.586,0,0,1,7,2.61V6.372a17.6,17.6,0,0,1-7,2.609ZM10,13V9H6a2,2,0,0,0,0,4Z"/></g></svg>