<svg xmlns="http://www.w3.org/2000/svg" width="32" height="32" viewBox="0 0 32 32"><defs><style>.a{fill:none;}.b{fill:#111;}</style></defs><rect class="a" width="32" height="32"/><g transform="translate(4 4)"><path class="b" d="M5,6v.5A2.5,2.5,0,0,1,2.5,9H2v6h.541a2.5,2.5,0,0,1,2.5,2.5V18H19v-.5A2.5,2.5,0,0,1,21.5,15H22V9h-.5A2.5,2.5,0,0,1,19,6.5V6ZM4,6H3.5A1.5,1.5,0,0,0,2,7.5V8h.5A1.5,1.5,0,0,0,4,6.5Zm.041,12v-.5a1.5,1.5,0,0,0-1.5-1.5H2v.5A1.5,1.5,0,0,0,3.5,18Zm.684,1a.5.5,0,0,1-.367,0H3.5A2.5,2.5,0,0,1,1,16.5v-9A2.5,2.5,0,0,1,3.5,5h17A2.5,2.5,0,0,1,23,7.5v9A2.5,2.5,0,0,1,20.5,19ZM20,18h.5A1.5,1.5,0,0,0,22,16.5V16h-.5A1.5,1.5,0,0,0,20,17.5ZM20,6v.5A1.5,1.5,0,0,0,21.5,8H22V7.5A1.5,1.5,0,0,0,20.5,6ZM12,16a4,4,0,1,1,4-4A4,4,0,0,1,12,16Zm0-1a3,3,0,1,0-3-3A3,3,0,0,0,12,15Z"/></g></svg>