<svg xmlns="http://www.w3.org/2000/svg" width="24.019" height="24" viewBox="0 0 24.019 24"><defs><style>.a{fill:#151716;}</style></defs><path class="a" d="M25.67,14.333a.667.667,0,1,1,1.333,0v9.333A3.333,3.333,0,0,1,23.67,27H6.319a3.333,3.333,0,0,1-3.333-3.333V6.333A3.333,3.333,0,0,1,6.319,3h9.352a.667.667,0,1,1,0,1.333H6.319a2,2,0,0,0-2,2V23.666a2,2,0,0,0,2,2H23.67a2,2,0,0,0,2-2ZM24.142,3.195l2.667,2.667a.667.667,0,0,1,0,.944L16.143,17.472a.667.667,0,0,1-.472.195H13A.667.667,0,0,1,12.338,17V14.333a.667.667,0,0,1,.195-.472L23.2,3.195a.667.667,0,0,1,.944,0ZM23.67,4.61l-10,10v1.724h1.724l10-10Z" transform="translate(-2.986 -2.999)"/></svg>