<svg xmlns="http://www.w3.org/2000/svg" width="32" height="32" viewBox="0 0 32 32"><defs><style>.a{fill:none;}.b{fill:#111;}</style></defs><rect class="a" width="32" height="32"/><g transform="translate(4 4)"><path class="b" d="M20,10.736V18.5A2.5,2.5,0,0,1,17.5,21h-3a.5.5,0,0,1-.5-.5v-6a.5.5,0,0,0-.5-.5h-3a.5.5,0,0,0-.5.5v6a.5.5,0,0,1-.5.5h-3A2.5,2.5,0,0,1,4,18.5V10.736l-.182.15a.5.5,0,1,1-.636-.772l8.5-7a.5.5,0,0,1,.636,0l8.5,7a.5.5,0,1,1-.636.772L20,10.736Zm-.993-.818L12,4.148,4.993,9.918A.5.5,0,0,1,5,10v8.5A1.5,1.5,0,0,0,6.5,20H9V14.5A1.5,1.5,0,0,1,10.5,13h3A1.5,1.5,0,0,1,15,14.5V20h2.5A1.5,1.5,0,0,0,19,18.5V10A.447.447,0,0,1,19.007,9.918Z"/></g></svg>