<svg xmlns="http://www.w3.org/2000/svg" width="32" height="32" viewBox="0 0 32 32"><defs><style>.a{fill:none;}</style></defs><rect class="a" width="32" height="32"/><path d="M5.79,15.04a.5.5,0,0,1,.393.051,6.5,6.5,0,1,0-2.274-2.274.5.5,0,0,1,.051.393l-.732,2.562ZM16.679,7.321A7.5,7.5,0,0,1,21.06,18.139l.921,3.224a.5.5,0,0,1-.618.618l-3.224-.921A7.5,7.5,0,0,1,7.321,16.679a7.453,7.453,0,0,1-1.46-.619l-3.224.921a.5.5,0,0,1-.618-.618l.921-3.224A7.5,7.5,0,1,1,16.679,7.321Zm.251,1.147A7.506,7.506,0,0,1,8.469,16.93a6.5,6.5,0,0,0,9.348,3.161.5.5,0,0,1,.393-.051l2.562.732L20.04,18.21a.5.5,0,0,1,.051-.393A6.5,6.5,0,0,0,16.93,8.469Z" transform="translate(4 4)"/></svg>