<svg xmlns="http://www.w3.org/2000/svg" width="35" height="32" viewBox="0 0 35 32"><defs><style>.a{fill:none;}.b,.d{fill:#fff;}.c{fill:#ff5700;stroke:#004d47;}.d{font-size:10px;font-family:Gotham-Bold, Gotham;font-weight:700;}.e{stroke:none;}</style></defs><g transform="translate(-1830 -35)"><g transform="translate(1830 35)"><rect class="a" width="32" height="32"/><g transform="translate(4.922 4)"><path class="b" d="M14.83,19a3,3,0,0,1-5.66,0H7.579a2.5,2.5,0,0,1-2.285-3.515L6,13.894V11a6,6,0,0,1,4-5.659V5a2,2,0,1,1,4,0v.341A6,6,0,0,1,18,11v2.894l.707,1.59A2.5,2.5,0,0,1,16.422,19Zm-1.1,0H10.267a2,2,0,0,0,3.466,0ZM13,5.083V5a1,1,0,0,0-2,0v.083a6.04,6.04,0,0,1,2,0ZM12,6a5,5,0,0,0-5,5v3l-.043.2-.75,1.688A1.5,1.5,0,0,0,7.577,18h8.845a1.5,1.5,0,0,0,1.371-2.11l-.75-1.687L17,14V11A5,5,0,0,0,12,6Z"/></g></g><g transform="translate(1849 35)"><g class="c"><rect class="e" width="16" height="16" rx="8"/><rect class="a" x="0.5" y="0.5" width="15" height="15" rx="7.5"/></g><text class="d" transform="translate(8 12)"><tspan x="-2.11" y="0">1</tspan></text></g></g></svg>