<svg xmlns="http://www.w3.org/2000/svg" xmlns:xlink="http://www.w3.org/1999/xlink" width="64" height="64" viewBox="0 0 64 64"><defs><style>.a{fill:url(#a);}.b{fill:none;}.c{fill:#fff;}</style><linearGradient id="a" x1="0.5" y1="1.048" x2="0.5" y2="-0.031" gradientUnits="objectBoundingBox"><stop offset="0" stop-color="#910c76"/><stop offset="1" stop-color="red"/></linearGradient></defs><g transform="translate(-372 -179)"><circle class="a" cx="32" cy="32" r="32" transform="translate(372 179)"/><g transform="translate(384 191)"><rect class="b" width="40" height="40"/><g transform="translate(7.5 8.75)"><path class="c" d="M6.385,14.989l0-.021L4.856,5.817A1.875,1.875,0,0,0,3.006,4.25H2.625a.625.625,0,0,1,0-1.25h.383A3.125,3.125,0,0,1,6.07,5.5h20.3a.625.625,0,0,1,.6.8l-2.5,8.75a.625.625,0,0,1-.6.454H7.738l.156.934A1.875,1.875,0,0,0,9.744,18H23.875a.625.625,0,0,1,0,1.25H9.742A3.125,3.125,0,0,1,6.66,16.639l-.275-1.65ZM6.28,6.75l1.25,7.5H23.4l2.143-7.5ZM9.5,25.5A2.5,2.5,0,1,1,12,23,2.5,2.5,0,0,1,9.5,25.5Zm0-1.25A1.25,1.25,0,1,0,8.25,23,1.25,1.25,0,0,0,9.5,24.25ZM20.75,25.5a2.5,2.5,0,1,1,2.5-2.5A2.5,2.5,0,0,1,20.75,25.5Zm0-1.25A1.25,1.25,0,1,0,19.5,23,1.25,1.25,0,0,0,20.75,24.25Z" transform="translate(-2 -3)"/></g></g></g></svg>