<svg xmlns="http://www.w3.org/2000/svg" width="32" height="32" viewBox="0 0 32 32"><defs><style>.a{fill:none;}.b{fill:#111;}</style></defs><rect class="a" width="32" height="32"/><g transform="translate(4 4)"><path class="b" d="M19,5h1.5a.5.5,0,0,1,0,1H19V7.5a.5.5,0,0,1-1,0V6H16.5a.5.5,0,0,1,0-1H18V3.5a.5.5,0,0,1,1,0ZM4,15H9.5a.5.5,0,0,1,.5.5A1.5,1.5,0,0,0,11.5,17h1A1.5,1.5,0,0,0,14,15.5a.5.5,0,0,1,.5-.5H20V9.5a.5.5,0,0,1,1,0v9A2.5,2.5,0,0,1,18.5,21H5.5A2.5,2.5,0,0,1,3,18.5V5.5A2.5,2.5,0,0,1,5.5,3h9a.5.5,0,0,1,0,1h-9A1.5,1.5,0,0,0,4,5.5Zm0,1v2.5A1.5,1.5,0,0,0,5.5,20h13A1.5,1.5,0,0,0,20,18.5V16H14.95a2.5,2.5,0,0,1-2.45,2h-1a2.5,2.5,0,0,1-2.45-2Z"/></g></svg>