<svg xmlns="http://www.w3.org/2000/svg" width="32" height="32" viewBox="0 0 32 32"><defs><style>.a{fill:none;}.b{fill:#111;}</style></defs><rect class="a" width="32" height="32"/><g transform="translate(4.25 4)"><path class="b" d="M17.187,5.91l1.484-.3a1.5,1.5,0,0,1,1.6.72l.779,1.349a1.5,1.5,0,0,1-.177,1.745l-1,1.132a8.043,8.043,0,0,1,0,2.9l1,1.132a1.5,1.5,0,0,1,.177,1.745l-.78,1.35a1.5,1.5,0,0,1-1.6.72l-1.483-.3A7.992,7.992,0,0,1,14.68,19.54L14.2,20.974A1.5,1.5,0,0,1,12.78,22H11.222A1.5,1.5,0,0,1,9.8,20.974L9.32,19.54a7.992,7.992,0,0,1-2.507-1.45l-1.484.3a1.5,1.5,0,0,1-1.6-.72L2.95,16.325a1.5,1.5,0,0,1,.177-1.745l1-1.132a8.043,8.043,0,0,1,0-2.9l-1-1.132A1.5,1.5,0,0,1,2.95,7.675l.78-1.35a1.5,1.5,0,0,1,1.6-.72l1.483.3A7.992,7.992,0,0,1,9.32,4.46L9.8,3.026A1.5,1.5,0,0,1,11.22,2h1.558A1.5,1.5,0,0,1,14.2,3.026l.478,1.434a7.992,7.992,0,0,1,2.507,1.45Zm-3.054-.58a.5.5,0,0,1-.323-.318l-.556-1.67A.5.5,0,0,0,12.779,3H11.221a.5.5,0,0,0-.475.342l-.556,1.67a.5.5,0,0,1-.323.319A6.992,6.992,0,0,0,7.293,6.819a.5.5,0,0,1-.437.12L5.13,6.585a.5.5,0,0,0-.534.24l-.779,1.35a.5.5,0,0,0,.06.582l1.168,1.318a.5.5,0,0,1,.114.437,7.029,7.029,0,0,0,0,2.976.5.5,0,0,1-.114.437L3.876,15.243a.5.5,0,0,0-.059.582l.78,1.35a.5.5,0,0,0,.533.24l1.727-.354a.5.5,0,0,1,.437.12,6.992,6.992,0,0,0,2.574,1.488.5.5,0,0,1,.323.319l.556,1.67a.5.5,0,0,0,.475.342H12.78a.5.5,0,0,0,.475-.342l.556-1.67a.5.5,0,0,1,.323-.319,6.992,6.992,0,0,0,2.574-1.488.5.5,0,0,1,.437-.12l1.727.354a.5.5,0,0,0,.534-.24l.779-1.35a.5.5,0,0,0-.06-.582l-1.168-1.318a.5.5,0,0,1-.114-.437,7.029,7.029,0,0,0,0-2.976.5.5,0,0,1,.114-.437l1.169-1.318a.5.5,0,0,0,.059-.582l-.78-1.35a.5.5,0,0,0-.533-.24l-1.727.354a.5.5,0,0,1-.437-.12,6.992,6.992,0,0,0-2.574-1.488ZM12,16a4,4,0,1,1,4-4A4,4,0,0,1,12,16Zm0-1a3,3,0,1,0-3-3A3,3,0,0,0,12,15Z"/></g></svg>