<svg xmlns="http://www.w3.org/2000/svg" xmlns:xlink="http://www.w3.org/1999/xlink" width="64" height="64" viewBox="0 0 64 64"><defs><style>.a{fill:url(#a);}.b{fill:none;}.c{fill:#fff;}</style><linearGradient id="a" x1="0.5" x2="0.5" y2="1" gradientUnits="objectBoundingBox"><stop offset="0" stop-color="#f0b"/><stop offset="1" stop-color="#b02bbf"/></linearGradient></defs><g transform="translate(-372 -179)"><circle class="a" cx="32" cy="32" r="32" transform="translate(372 179)"/><g transform="translate(384 191)"><rect class="b" width="40" height="40"/><g transform="translate(8.75 8.75)"><path class="c" d="M23,5.5h1.875a.625.625,0,0,1,0,1.25H23V8.625a.625.625,0,0,1-1.25,0V6.75H19.875a.625.625,0,0,1,0-1.25H21.75V3.625a.625.625,0,0,1,1.25,0ZM4.25,18h6.875a.625.625,0,0,1,.625.625A1.875,1.875,0,0,0,13.625,20.5h1.25a1.875,1.875,0,0,0,1.875-1.875A.625.625,0,0,1,17.375,18H24.25V11.125a.625.625,0,0,1,1.25,0v11.25A3.125,3.125,0,0,1,22.375,25.5H6.125A3.125,3.125,0,0,1,3,22.375V6.125A3.125,3.125,0,0,1,6.125,3h11.25a.625.625,0,0,1,0,1.25H6.125A1.875,1.875,0,0,0,4.25,6.125Zm0,1.25v3.125A1.875,1.875,0,0,0,6.125,24.25h16.25a1.875,1.875,0,0,0,1.875-1.875V19.25H17.938a3.125,3.125,0,0,1-3.062,2.5h-1.25a3.125,3.125,0,0,1-3.063-2.5Z" transform="translate(-3 -3)"/></g></g></g></svg>