<svg xmlns="http://www.w3.org/2000/svg" xmlns:xlink="http://www.w3.org/1999/xlink" width="64" height="64" viewBox="0 0 64 64"><defs><style>.a{fill:url(#a);}.b{fill:none;}.c{fill:#fff;fill-rule:evenodd;}</style><linearGradient id="a" x1="0.5" x2="0.5" y2="1" gradientUnits="objectBoundingBox"><stop offset="0" stop-color="#127125"/><stop offset="1" stop-color="#509105"/></linearGradient></defs><g transform="translate(-372 -179)"><circle class="a" cx="32" cy="32" r="32" transform="translate(372 179)"/><g transform="translate(384 191)"><rect class="b" width="40" height="40"/><g transform="translate(10 8.75)"><path class="c" d="M204.827,152.69a16.051,16.051,0,0,0-2.464-3.9,18.255,18.255,0,0,0-3.155-2.961l2.416-4.425a.549.549,0,0,0-.1-.664,2.848,2.848,0,0,0-2.028-.9,4.815,4.815,0,0,0-1.838.477,3.509,3.509,0,0,1-1.156.341.731.731,0,0,1-.27-.047,8.51,8.51,0,0,0-2.833-.659,3.86,3.86,0,0,0-2.852,1.319.559.559,0,0,0-.066.7l2.605,3.887a18.574,18.574,0,0,0-3.112,2.928,16.206,16.206,0,0,0-2.464,3.9,13.123,13.123,0,0,0-1.127,5.3,4.39,4.39,0,0,0,4.41,4.355h10.754a4.39,4.39,0,0,0,4.411-4.355,13.123,13.123,0,0,0-1.127-5.3Zm-13.137-10.95a2.5,2.5,0,0,1,1.705-.674,7.462,7.462,0,0,1,2.44.594,1.943,1.943,0,0,0,.658.112,4.237,4.237,0,0,0,1.592-.426,3.88,3.88,0,0,1,1.4-.393,1.517,1.517,0,0,1,.914.309l-2.274,4.173h-3.961l-2.478-3.7Zm9.854,19.478H190.79a3.257,3.257,0,0,1-3.273-3.232,12.985,12.985,0,0,1,3.3-8.453,17.317,17.317,0,0,1,3.217-2.975h4.254a16.985,16.985,0,0,1,3.216,2.975,12.953,12.953,0,0,1,3.3,8.453,3.242,3.242,0,0,1-3.264,3.232Z" transform="translate(-186.38 -139.84)"/><path class="c" d="M351.972,472.929l2.625,3.925v-3.962a.863.863,0,0,1,.168-.578.568.568,0,0,1,.452-.194.586.586,0,0,1,.463.192.857.857,0,0,1,.17.58v1.078h.469a.9.9,0,0,1,.624.189.637.637,0,0,1,.2.491.619.619,0,0,1-.207.482.9.9,0,0,1-.62.186h-.469v.485h.469a.894.894,0,0,1,.624.189.637.637,0,0,1,.2.492.619.619,0,0,1-.207.482.9.9,0,0,1-.62.186h-.469v.974q0,.877-.735.876a.966.966,0,0,1-.331-.053.842.842,0,0,1-.275-.164,1.6,1.6,0,0,1-.239-.267q-.111-.151-.221-.31l-2.561-3.876v3.9a.827.827,0,0,1-.179.577.6.6,0,0,1-.462.2.588.588,0,0,1-.464-.2.838.838,0,0,1-.176-.575v-1.078h-.6a.9.9,0,0,1-.62-.186.618.618,0,0,1-.207-.482.637.637,0,0,1,.2-.492.893.893,0,0,1,.623-.189h.6v-.485h-.6a.9.9,0,0,1-.62-.186.618.618,0,0,1-.207-.482.636.636,0,0,1,.2-.491.893.893,0,0,1,.623-.189h.6V473.1a1.442,1.442,0,0,1,.074-.513.736.736,0,0,1,.291-.335.805.805,0,0,1,.437-.129.721.721,0,0,1,.547.219,1.607,1.607,0,0,1,.2.259c.069.105.141.216.215.332Z" transform="translate(-343.176 -460.798)"/></g></g></g></svg>