<svg xmlns="http://www.w3.org/2000/svg" xmlns:xlink="http://www.w3.org/1999/xlink" width="49" height="49" viewBox="0 0 49 49"><defs><style>.a{fill:#fff;}.b{fill:none;}.c{fill:#4186d9;}.d{filter:url(#a);}</style><filter id="a" x="0" y="0" width="49" height="49" filterUnits="userSpaceOnUse"><feOffset input="SourceAlpha"/><feGaussianBlur stdDeviation="1.5" result="b"/><feFlood flood-opacity="0.161"/><feComposite operator="in" in2="b"/><feComposite in="SourceGraphic"/></filter></defs><g transform="translate(-541.5 -3230.5)"><g class="d" transform="matrix(1, 0, 0, 1, 541.5, 3230.5)"><circle class="a" cx="20" cy="20" r="20" transform="translate(4.5 4.5)"/></g><g transform="translate(551.555 3240.555)"><rect class="b" width="28.889" height="28.889" transform="translate(0 0)"/><g transform="translate(2.18 2.18)"><path class="c" d="M39.513,26.334,37.857,24.3a2.5,2.5,0,0,1-.491-1.167l-.3-2.6A2.32,2.32,0,0,0,35.033,18.5l-2.6-.3a2.285,2.285,0,0,1-1.2-.491L29.2,16.054a2.268,2.268,0,0,0-2.861,0L24.3,17.71a2.5,2.5,0,0,1-1.167.491l-2.6.3a2.32,2.32,0,0,0-2.033,2.033l-.3,2.6a2.285,2.285,0,0,1-.491,1.2l-1.656,2.033a2.268,2.268,0,0,0,0,2.861l1.656,2.033a2.5,2.5,0,0,1,.491,1.167l.3,2.6a2.32,2.32,0,0,0,2.033,2.033l2.6.3a2.285,2.285,0,0,1,1.2.491l2.033,1.656a2.268,2.268,0,0,0,2.861,0l2.033-1.656a2.5,2.5,0,0,1,1.167-.491l2.6-.3a2.32,2.32,0,0,0,2.033-2.033l.3-2.6a2.285,2.285,0,0,1,.491-1.2l1.656-2.033a2.372,2.372,0,0,0,0-2.86ZM25.47,33.9l-5.346-5.346,2.3-2.3,3.049,3.052,7.643-7.645,2.3,2.372Z" transform="translate(-15.549 -15.546)"/></g></g></g></svg>