<svg xmlns="http://www.w3.org/2000/svg" xmlns:xlink="http://www.w3.org/1999/xlink" width="64" height="64" viewBox="0 0 64 64"><defs><style>.a{fill:url(#a);}.b{fill:#fff;}</style><linearGradient id="a" x1="0.5" x2="0.5" y2="1" gradientUnits="objectBoundingBox"><stop offset="0" stop-color="#ff9500"/><stop offset="1" stop-color="#bf2b2b"/></linearGradient></defs><g transform="translate(-372 -179)"><circle class="a" cx="32" cy="32" r="32" transform="translate(372 179)"/><g transform="translate(368.002 22.505)"><g transform="translate(16.005 187.63)"><g transform="translate(0 0)"><path class="b" d="M49.828,268.65H44.683a6.145,6.145,0,0,0-3.034.8,6.253,6.253,0,0,0-2,1.794,6.172,6.172,0,0,0-1.065-.092H33.44a6.157,6.157,0,0,0-1.065.092,6.249,6.249,0,0,0-2-1.794,6.145,6.145,0,0,0-3.034-.8H22.2a6.209,6.209,0,0,0-6.2,6.2v3.492a.665.665,0,0,0,.665.661H27.226v1.836a.666.666,0,0,0,.665.665H44.119a.666.666,0,0,0,.665-.665V279H55.34a.665.665,0,0,0,.665-.665v-3.488A6.209,6.209,0,0,0,49.828,268.65Zm-22.533,8.1v.918H17.336v-2.822a4.878,4.878,0,0,1,4.865-4.865h5.145a4.819,4.819,0,0,1,2.377.624,4.942,4.942,0,0,1,1.29,1.051A6.228,6.228,0,0,0,27.295,276.75Zm16.145.6v2.827H28.575v-3.869l.028-.11.046-.165.032-.11a4.892,4.892,0,0,1,4.626-3.359l.133-.074h5.149a4.883,4.883,0,0,1,4.823,4.245,1.13,1.13,0,0,0,.028.3Zm11.253.326H44.78v-1.927l-.032-.115v-.225l-.064-.179a6.246,6.246,0,0,0-3.378-3.538,4.943,4.943,0,0,1,1-1.083,4.82,4.82,0,0,1,2.377-.624h5.149a4.878,4.878,0,0,1,4.865,4.865Z" transform="translate(-16.005 -268.65)"/></g></g><g transform="translate(20.081 177.135)"><path class="b" d="M59.532,178.547A4.686,4.686,0,1,0,60.9,181.86,4.667,4.667,0,0,0,59.532,178.547Zm-.941,5.677a3.355,3.355,0,1,1,.982-2.373A3.355,3.355,0,0,1,58.591,184.224Z" transform="translate(-51.529 -177.17)"/></g><g transform="translate(42.572 177.13)"><path class="b" d="M252.252,177.13a4.686,4.686,0,1,0,4.682,4.69A4.686,4.686,0,0,0,252.252,177.13Zm2.369,7.056a3.355,3.355,0,1,1,0-4.744A3.355,3.355,0,0,1,254.621,184.186Z" transform="translate(-247.562 -177.13)"/></g><g transform="translate(31.335 179.631)"><path class="b" d="M157.61,200.3a4.681,4.681,0,1,0,.011,6.62A4.682,4.682,0,0,0,157.61,200.3Zm-3.307,6.679a3.355,3.355,0,1,1,3.356-3.354A3.355,3.355,0,0,1,154.3,206.974Z" transform="translate(-149.625 -198.93)"/></g></g></g></svg>